<?xml version="1.0" encoding="utf-8"?>
<!-- Generator: Adobe Illustrator 25.0.0, SVG Export Plug-In . SVG Version: 6.00 Build 0)  -->
<svg version="1.1" id="Layer_1" xmlns="http://www.w3.org/2000/svg" xmlns:xlink="http://www.w3.org/1999/xlink" x="0px" y="0px"
	 viewBox="0 0 507.8 386" style="enable-background:new 0 0 507.8 386;" xml:space="preserve">
<style type="text/css">
	.st0{clip-path:url(#SVGID_2_);}
	.st1{fill:#FFFFFF;}
	.st2{fill:#A0C6F4;}
	.st3{fill:none;stroke:#2A1E17;stroke-linecap:round;stroke-linejoin:round;}
	.st4{fill:#2A1E17;}
	.st5{fill:#EAECEC;}
	.st6{fill:#F9865F;}
	.st7{fill:#2A1E33;}
	.st8{fill:#407199;}
	.st9{fill:#FF8A66;}
	.st10{fill:#FFF7C9;}
	.st11{fill:none;stroke:#2A1E33;stroke-linecap:round;stroke-linejoin:round;}
	.st12{fill:#F23859;}
	.st13{fill:#FAD8B0;}
	.st14{fill:#C6CBCB;}
	.st15{fill:#FFF7DC;}
	.st16{fill:#FFE1C0;}
	.st17{fill:#FFFFFF;stroke:#2A1E17;stroke-linecap:round;stroke-linejoin:round;}
	.st18{fill:#91BA83;}
	.st19{fill:none;stroke:#2A1E17;stroke-width:0.67;stroke-linecap:round;stroke-linejoin:round;}
	.st20{fill:#96BD89;}
	.st21{fill:none;stroke:#FF6D66;stroke-linecap:round;stroke-linejoin:round;}
	.st22{fill:none;stroke:#FAD8B0;stroke-miterlimit:10;}
	.st23{fill:none;stroke:#A0C6F4;stroke-linecap:round;stroke-linejoin:round;}
</style>
<g>
	<defs>
		<rect id="SVGID_1_" width="507.8" height="386"/>
	</defs>
	<clipPath id="SVGID_2_">
		<use xlink:href="#SVGID_1_"  style="overflow:visible;"/>
	</clipPath>
	<g class="st0">
		<path class="st1" d="M328.5,109.7c-32.4-30.4-70.4-38.2-80.4-39.8c6.8-18.2,17.2-45.3,19.8-49.3c1.7-0.2,3.4-0.3,5.1-0.3
			c7.4,0,23.2,1.5,46,11.8c32.8,14.7,41.7,31.5,43.5,35.6L328.5,109.7z"/>
		<path class="st2" d="M273,22.2c7.2,0,22.7,1.5,45.2,11.6c29.8,13.4,39.4,28.4,42,33.5l-31.8,39.4c-15.7-14.2-34.1-25.1-54.1-32.1
			c-7.6-2.7-15.4-4.8-23.4-6.3c7.5-20.1,15.6-40.7,18.3-45.9C270.1,22.3,271.3,22.2,273,22.2 M273,18.2c-2,0-4.1,0.1-6.1,0.4
			c-2.4,0.8-21.6,52.9-21.6,52.9s45.6,4.7,83.3,41.1l36-44.6c0,0-6-20.3-45-37.8C296.9,20,281,18.2,273,18.2L273,18.2z"/>
		<path class="st3" d="M252.1,75.5c0,0,44.8,4.5,72.4,29.9"/>
		<polygon class="st2" points="290.8,73.4 307.5,40.9 324.6,74.7 		"/>
		<polygon class="st3" points="294,72.9 310.7,40.4 327.9,74.3 		"/>
		<path class="st3" d="M278.3,16.3c0,0,50.2,4.5,81.5,41.6"/>
		<path class="st4" d="M304,160.3c-2.8-2-4.6-3.4-4.6-3.4c0.8-1,12.8-13.9,19.8-24.3C319.3,132.6,305.1,161.1,304,160.3z"/>
		<path class="st3" d="M132.7,66.4c1.3,2.2,1.9,1.3,5.8,1s9.4,2.5,11.4,7.3s1.3,5.5,0.3,6.1s-8.5,1.5-8.8,3"/>
		<path class="st5" d="M164.1,319.8"/>
		<polygon class="st6" points="233.5,309.9 230,304 217.6,324.6 220.9,327.1 		"/>
		<path class="st6" d="M151.4,258.8c0,0-6.4-10.4-3.7-15.5l20.4,2.2L151.4,258.8z"/>
		<path d="M151.4,258.8l1.2,2.8l-3.8,14.7c-0.5,1.9,0.1,3.8,1.6,5.1l0,0l18.7-27.6c1.8-2.6,1.4-6.1-1-8.3l-4.2-3.9L151.4,258.8z"/>
		<path class="st7" d="M141.4,83.9c5.8-0.1,13.3-0.5,11.8-5s-7-15.6-19.7-12.2c0,0-4.5,3.7,1.1,10.4S141.4,83.9,141.4,83.9z"/>
		<path class="st8" d="M171,245.7c0,0-10-29.5-1.5-42.5c7-10.7,29.8,6.7,32.9,9l16.3-29.5c0,0-3.8-5.3-13-10.4s-47.4-20.7-65.4,7.7
			c-6.6,10.5-6.7,55.4,6,72.6L171,245.7z"/>
		<path class="st3" d="M171,245.7c0,0-10-29.5-1.5-42.5c7-10.7,29.8,6.7,32.9,9"/>
		<path class="st8" d="M218.7,182.8c-7.4,7.8-29.4,45.8-34.4,64c-6.6,24.3-4.1,44.5,32.2,84l17.6-25.6c0,0-12.4-18.8-10-36.5
			c3.3-25.6,21.5-50.4,30.8-66.1L218.7,182.8z"/>
		<polygon class="st4" points="221.5,186.1 250.7,209.1 259.4,195.8 		"/>
		<path class="st9" d="M389.4,162c4.6,1,8,2.7,10.4,5.2c2.4,2.5,1.3,3.8,0.4,4.6s-4.2-0.1-7.2-2.7S389.4,162,389.4,162z"/>
		<path class="st6" d="M299.4,156.9c0.8-1,12.8-13.9,19.8-24.3c0,0,21.2,23.7,23.5,24.5c0.8,0.3,6,0.2,12.5,0.2
			c10.9-0.1,25.3-0.2,28.5,1.4c5.1,2.5,8.2,3.8,9.4,7.4s1.8,5.9-1.3,6.1c-3.6,0.2-5.9-4.3-5.9-4.3c-3.4,1.8-6.9,3.3-10.5,4.6
			c0,0-27.1,10.5-45.2,5.4C325.4,176.4,299.4,156.9,299.4,156.9z"/>
		<path class="st6" d="M135.1,62.2c-2.3,0.9-3.7,1.9-2.4,4.2s1.9,1.3,5.8,1s9.4,2.5,11.4,7.3s1.3,5.5,0.3,6.1s-8.5,1.5-8.8,3
			s3,5.9,9.9,5.6l1.6-0.3c0,0,14.5,14.1,16.6,16.2s17.5,12.5,26,14.6c6.4,1.6,19.5-0.5,27.3-2c3.8-0.7,6.4-1.4,6.4-1.4
			s-5.9-10.6-7.1-26.9c0,0-14.1,2.3-23.4,4.3c0,0-21.8-12.2-32.5-17.6c0,0-9.3-11.4-13.6-12.9C148.3,62.2,138.2,61,135.1,62.2z"/>
		<path class="st4" d="M222.8,118.1c3.8-0.7,6.4-1.4,6.4-1.4s-7.1-9-8.3-25.3c0,0-3.2,3.5-2.2,12.7
			C219.9,115.8,222.8,118.1,222.8,118.1z"/>
		<path class="st10" d="M220.6,89.6c0,0,0.2,19.9,5.5,28.2l1.9-0.8c0,0-25.2,29.4-33.3,48.7c-1.3,3.2,52.2,37.4,60.1,36.9
			c0,0,26.1-39.8,35-51.6l9.6,7.4c0,0,18.8-19,19.8-25.8c0,0-18.2-22.1-33-28.6s-28.2-17.6-44.1-17.3
			C228.3,87,220.6,89.6,220.6,89.6z"/>
		<polygon class="st4" points="299.4,158.4 289.8,151 291.4,146.8 		"/>
		<path class="st6" d="M314,79.6c-1.7,5.2-6.5,20.3-11.9,22.2s-11-0.5-11-0.5l-5.8,3c-0.6,1.9-5.2,3.6-11.1,3.8
			c-4.3,0.2-7-5.4-5.7-9.5c0.6-1.9,2.8-11,2.8-11s4.7-17.2,9-20.7c4.3-3.6,8.3-7,19.8-2.4C317.6,71.6,314,79.6,314,79.6z"/>
		<path class="st7" d="M279.3,80.4c-0.8,3.2-4.1,9.6-6.3,8.5s-3-4.1-1.4-9.8s2.8-18.5,7.2-20.8s6.3,0.4,6.3,0.4s-1.9-9.4,3.7-10.7
			c0,0,1.9-0.9,1.2,5.5c1.5-3.6,5.3-5.7,9.2-5.1c7,0.8,9.5,10.6,9.5,10.6c0.4-1.7,2-2.8,3.7-2.7c3.2,0,8.1,4.8,6.9,10
			c0,0,8.2-2.6,12.6,4s3.8,13.7-6.7,16.6c-11,3-10.9-9.9-12.6-11.5s-3.5-3.6-9.6-1.3s-12.6-4.5-12.6-4.5s-1,8.2-2,9
			s-3.1,1.8-2.6-2.1s1.2-3.5,0.8-4.5s-2.1-4.3-5.8-1.4C276.7,73.8,279.3,80.4,279.3,80.4z"/>
		<path class="st11" d="M281,81.8c-2.5-2.1-4.2-5.7-2-9.3s5.7-4.1,6.8-2.7s1.5,3.7,0.5,6.4"/>
		<path d="M220.9,327.1l1.2,2.8l-3.8,14.7c-0.5,1.9,0.1,3.8,1.6,5.1l0,0l18.7-27.6c1.8-2.6,1.4-6.2-1-8.3l-4.2-3.9L220.9,327.1z"/>
		<path class="st11" d="M285,58.7c0,0-1.4-4.7-5.7-5.9"/>
		<line class="st3" x1="194.1" y1="164.3" x2="245.9" y2="92"/>
		<path class="st3" d="M267.2,97.1c-1.9,2.4-2.7,12.9,5.9,13.5c4.9,0.5,9.8-0.6,14.1-3.1"/>
		<path class="st3" d="M152.6,63.7c0,0,5.9,7.8,6.8,10.6"/>
		<path class="st3" d="M374.2,168.7c0,0,4,3.3,11.8-1c2.8-1.5,0.8-5.2-2.8-4.2c-2.6,0.5-5.3,0.3-7.9-0.5"/>
		<path class="st3" d="M390.7,162.4c0,0,3.8,4.4,3.7,7"/>
		<path class="st3" d="M334.9,162c0,0,3.4-4.6,7.8-4.9"/>
		<path class="st3" d="M190.2,101.5c0,0,2-6.2,8.4-7.4"/>
		<path class="st3" d="M207.6,196.2l-7.7,14.6c0,0-25.2,42.7-16.7,70.3"/>
		<path class="st3" d="M230,245.2l24.8-42.6c0,0,32.5-47.2,35.9-53.9l11.5-21.2"/>
		<path class="st3" d="M197.6,168.9c0,0,44.2,32.2,57.3,33.8"/>
		<path class="st3" d="M220.6,89.6c0,0,0,20.2,5.4,28.5"/>
		<path class="st3" d="M317.8,129.4c-1.4,8.3-19.8,25.8-19.8,25.8"/>
		<path class="st4" d="M313.5,153.9"/>
		<path class="st6" d="M396.2,213.7"/>
		<circle class="st4" cx="180.3" cy="230.5" r="2.6"/>
		<polygon class="st3" points="426.3,286.9 424.9,276.8 433.4,282.5 429,283.5 		"/>
		<path class="st3" d="M142.6,115.6c-16.2-14.3-43,21.4,55,134.9c56.5,65.5,101,71.4,107,48.6c10.8-40.9-28.2-51.2-13.7-35.2
			c21.1,23.3,81.1,28.2,125.8,6.5c44.1-21.4,17-54.7,14.3-56.7"/>
		<circle class="st4" cx="417.5" cy="270.2" r="2.6"/>
		<line class="st3" x1="379.3" y1="291.6" x2="457" y2="247.8"/>
		<circle class="st4" cx="144.2" cy="117.7" r="2.6"/>
		<circle class="st12" cx="211.1" cy="63.6" r="5.6"/>
		<path class="st2" d="M109,20.7c-1.4,0-2.5,1.1-2.5,2.5c0,1.4,1.1,2.5,2.5,2.5s2.5-1.1,2.5-2.5c0,0,0,0,0,0
			C111.4,21.8,110.3,20.7,109,20.7z"/>
		<circle class="st13" cx="440.4" cy="325.4" r="2.5"/>
		<path class="st7" d="M396.2,213.7l-26.6-12.5c-1.4-0.7-1.9-2.3-1.3-3.7c0.3-0.6,0.8-1,1.3-1.3l49.5-21.8c0.7-0.3,1.5-0.3,2.2,0
			l34,14.6L396.2,213.7z"/>
		<path class="st14" d="M394.6,172.7c0.1,11,1.6,41,1.6,41l59.1-24.7l-1.3-41.8c-0.1-2-1.7-3.5-3.7-3.5c-0.5,0-0.9,0.1-1.4,0.3
			L398,167.3C395.9,168.2,394.6,170.4,394.6,172.7z"/>
		<path class="st3" d="M396.2,213.7l59.1-24.7l-1.3-41.8c0,0-0.4-4.6-5.1-3.2"/>
		<line class="st3" x1="424.8" y1="183.7" x2="428.8" y2="174.3"/>
		<line class="st3" x1="428.8" y1="183.7" x2="432.8" y2="174.3"/>
		
			<ellipse transform="matrix(0.9239 -0.3827 0.3827 0.9239 -99.6244 67.4124)" class="st12" cx="119.6" cy="284.1" rx="2.5" ry="2.5"/>
		<circle class="st12" cx="328.2" cy="296.4" r="3.4"/>
		<path class="st15" d="M145.3,320.8c9.8,4.5,20.5,6.8,31.2,6.7c0.8,0,1.4,0.6,1.4,1.4c0,0.1,0,0.1,0,0.2l-2.2,17.1
			c-0.1,0.6-0.5,1.1-1.1,1.2c-4.4,0.8-22,3.2-35.2-8c-0.4-0.4-0.6-0.9-0.4-1.4l4.4-16.3c0.2-0.7,1-1.2,1.8-0.9
			C145.1,320.7,145.2,320.8,145.3,320.8z"/>
		<path class="st3" d="M146.8,325.8c0,0,7.6,10.7,10.3,12.2s17.4-7.2,17.4-7.2"/>
		<line class="st3" x1="164.4" y1="336.6" x2="172.4" y2="344.8"/>
		<line class="st3" x1="153.2" y1="335" x2="143.9" y2="337.5"/>
		<rect x="381.6" y="118.2" class="st16" width="9" height="9"/>
		<polygon class="st2" points="382.8,238.9 385.4,243.5 388.1,248.1 382.8,248.1 377.5,248.1 380.1,243.5 		"/>
		<path class="st3" d="M167.7,34.8l0.7-20.9c-0.1-2,0.7-2.6,1.9-2.8c5.7-1.3,23-5.1,41.7,0.5c2.4,0.7,2.3,2,2.3,3.2l-0.7,19.9
			c-0.2,1.5-1.5,2.5-3,2.3c-0.1,0-0.2,0-0.3,0c-6.8-0.8-13.7-1.2-20.5-1c-6.6,0-13.2,0.5-19.7,1.6C168.4,37.8,167.7,36.5,167.7,34.8
			z"/>
		<path class="st3" d="M174,31.8L185,19l12.1,11.9C192.9,29.5,174,31.8,174,31.8z"/>
		<polyline class="st3" points="191.7,24.9 200.5,17.8 208,23.1 208.2,31.4 197.1,30.9 		"/>
		
			<ellipse transform="matrix(0.1005 -0.9949 0.9949 0.1005 141.1933 191.7342)" class="st3" cx="176.6" cy="17.8" rx="1.8" ry="2.2"/>
		<path class="st3" d="M379.1,306.5l7.3,13.6c0.8,1.2,0.5,1.9-0.2,2.5c-3.1,2.9-12.7,11.8-26.7,15.2c-1.8,0.4-2.2-0.4-2.6-1.2
			l-7-12.9c-0.4-1,0.1-2.2,1.1-2.6c0,0,0.1,0,0.1-0.1c4.6-2,9.1-4.4,13.4-7c4.2-2.4,8.2-5.2,11.9-8.3
			C377.6,304.8,378.6,305.5,379.1,306.5z"/>
		<path class="st3" d="M376.2,310.8L374,323l-12.1-3.1C365.1,319.2,376.2,310.8,376.2,310.8z"/>
		<polyline class="st3" points="367.6,321.7 364.6,329.5 357.9,328.9 354.6,323.7 361.9,319.9 		"/>
		
			<ellipse transform="matrix(0.9095 -0.4156 0.4156 0.9095 -98.9575 186.8453)" class="st3" cx="379.7" cy="320.7" rx="1.6" ry="1.3"/>
		<path class="st17" d="M343.4,75.3l29.8,22.8c0.6,0.5,1.6,0.4,2.1-0.3c0,0,0,0,0,0l4.5-6.1c0.4-0.6,0.3-1.5-0.3-2l-29.4-23.5
			c-0.6-0.5-1.6-0.4-2.1,0.2c0,0,0,0,0,0.1l-4.9,6.8C342.7,74,342.8,74.9,343.4,75.3z"/>
		<polygon class="st12" points="345.6,74.3 352.9,79.4 357.1,74.3 349.9,68.3 		"/>
		<polygon class="st13" points="355.6,81.4 362.8,87.1 366.7,82.3 359.4,76.4 		"/>
		<polygon class="st2" points="365.2,89.3 372.5,94.4 375.9,90 369.1,84.2 		"/>
		<path class="st17" d="M402.9,43.5l6.8,57.1c0.1,1.2,1.2,2.1,2.4,2c0,0,0.1,0,0.1,0l11.5-1.6c1.2-0.2,2.1-1.2,1.9-2.5l-5.6-57.3
			c-0.1-1.2-1.2-2.1-2.5-2c0,0-0.1,0-0.1,0L404.8,41C403.6,41.2,402.8,42.3,402.9,43.5z"/>
		<polygon class="st12" points="406.3,44.8 408.5,58.1 418.6,57.4 417.5,43 		"/>
		<polygon class="st18" points="409.2,63.2 410.7,77.3 420,76.5 418.7,62.2 		"/>
		<polygon class="st13" points="410.8,82.3 413,95.7 421.5,94.7 420.5,81.1 		"/>
		<path class="st17" d="M388,55.6l18.8,55.3c0.3,0.9,1.3,1.4,2.3,1.1c0,0,0,0,0,0l11.8-4.2c0.9-0.3,1.4-1.3,1.1-2.2l-17.7-55.8
			c-0.3-1-1.3-1.5-2.3-1.2c0,0,0,0-0.1,0l-12.9,4.8C388.2,53.7,387.7,54.7,388,55.6z"/>
		<polygon class="st2" points="391.9,56.6 396.7,69.2 406.5,66.4 402.4,52.5 		"/>
		<polygon class="st6" points="398.5,74.1 402.8,87.5 411.8,84.7 407.6,71 		"/>
		<polygon class="st13" points="404.1,92.4 408.9,105 417.1,102.3 413.3,89.2 		"/>
		<path class="st8" d="M151.4,125.4h95c3,0,5.5,2.5,5.5,5.5v12.9c0,3-2.5,5.5-5.5,5.5h-95c-3,0-5.5-2.5-5.5-5.5v-12.9
			C145.9,127.9,148.4,125.4,151.4,125.4z"/>
		<path class="st1" d="M159,132.4h51.8c1,0,1.8,0.8,1.8,1.8l0,0c0,1-0.8,1.8-1.8,1.8H159c-1,0-1.8-0.8-1.8-1.8l0,0
			C157.2,133.2,158,132.4,159,132.4z"/>
		<line class="st3" x1="157.7" y1="140.7" x2="245.7" y2="140.7"/>
		<path class="st18" d="M112.7,80.6l1.5,1.6c0.6,0.7,0.6,1.8-0.1,2.4l0,0l-2.5,2.2c-0.7,0.6-1.8,0.6-2.4-0.1l0,0l-1.5-1.6l0,0
			L112.7,80.6L112.7,80.6z"/>
		<path class="st3" d="M106.3,85.2l-7.1-7.7c-0.4-0.4-0.3-1,0.1-1.4l4.9-4.5c0.4-0.4,1-0.3,1.4,0.1l7.1,7.7c0.4,0.4,0.3,1-0.1,1.4
			l-4.9,4.5C107.2,85.6,106.6,85.6,106.3,85.2z"/>
		<rect x="83" y="112.6" class="st12" width="8.9" height="8.1"/>
		<polyline class="st3" points="83,107.3 83,112.6 77.7,112.6 		"/>
		<rect x="375.2" y="21.1" class="st13" width="8.9" height="8.1"/>
		<polyline class="st3" points="375.2,15.9 375.2,21.1 369.9,21.1 		"/>
		<path class="st3" d="M135.1,71.1c-92-38.1-162.8,35.3,10.6,147.7c13.7,8.8,34.6,12,34.6,12"/>
		<circle class="st4" cx="50.6" cy="73.7" r="2.6"/>
		<polygon class="st3" points="33.9,59.3 36.7,56.6 43.3,60.3 46.6,70.6 36.5,66.3 		"/>
		<polygon class="st3" points="36.7,56.6 33.9,59.3 32.3,57.4 35,54.7 		"/>
		<line class="st3" x1="46.6" y1="70.6" x2="40.1" y2="63.3"/>
		<path class="st17" d="M62.6,254.2l7.1,36.8c0.2,0.8,0.9,1.3,1.7,1.2c0,0,0,0,0,0l7.4-1.6c0.8-0.2,1.3-0.9,1.1-1.7l-6.4-37.1
			c-0.1-0.8-0.9-1.3-1.7-1.2c0,0-0.1,0-0.1,0l-8.2,1.8C62.9,252.6,62.4,253.4,62.6,254.2z"/>
		<polygon class="st12" points="64.9,254.9 67,263.4 73.5,262.5 72.1,253.2 		"/>
		<polygon class="st13" points="67.7,266.7 69.3,275.8 75.4,274.8 73.8,265.6 		"/>
		<polygon class="st2" points="69.6,279.1 71.7,287.7 77.2,286.7 75.9,277.8 		"/>
		<polygon class="st3" points="267.3,346.5 297.5,338.4 298.6,341.7 268.1,349.6 		"/>
		<line class="st3" x1="263.1" y1="342.2" x2="264" y2="345"/>
		<line class="st3" x1="262.2" y1="344" x2="264.8" y2="343.2"/>
		<line class="st3" x1="261.6" y1="352.7" x2="263.3" y2="357.9"/>
		<line class="st3" x1="260.2" y1="356" x2="264.8" y2="354.6"/>
		<line class="st3" x1="254.7" y1="344.2" x2="256.9" y2="351"/>
		<line class="st3" x1="252.6" y1="348.4" x2="259" y2="346.4"/>
		<polygon class="st19" points="47,18.3 27.9,9.7 28.7,7.5 47.9,16.3 		"/>
		<line class="st19" x1="47.4" y1="22.3" x2="48.1" y2="20.5"/>
		<line class="st19" x1="48.6" y1="21.7" x2="46.9" y2="21.1"/>
		<line class="st19" x1="52.6" y1="17.5" x2="54" y2="14.1"/>
		<line class="st19" x1="54.7" y1="16.4" x2="51.8" y2="15.2"/>
		<line class="st19" x1="52.6" y1="24.8" x2="54.4" y2="20.4"/>
		<line class="st19" x1="55.5" y1="23.5" x2="51.3" y2="21.9"/>
		<path class="st13" d="M118.5,179.7C105,170,91.7,155,97.6,139.5c0,0,9.3-6.2,24,1.5l14.7,7.7L118.5,179.7z"/>
		<path class="st1" d="M112.4,244.4c-6.1-2.9-32-16.3-36.6-39.4c-4-19.9,11.2-46.7,18.9-58.6c-0.5,15.7,15.3,29,22.9,34.5
			c6.5,4.8,13.6,8.5,21.2,11.2L112.4,244.4z"/>
		<path class="st13" d="M93.5,151.1c1.6,10.5,9.6,21.3,23.2,31.1c6.1,4.5,12.9,8.2,20,10.8l-25,49.4c-7.6-3.8-30.2-16.7-34.4-37.7
			C73.8,187.2,85.6,164.1,93.5,151.1 M97.6,139.5c0,0-28.6,38.7-23.2,65.8s38.7,41,38.7,41l27.9-55c-8.7-3.2-14.4-5.8-22.5-11.6
			C105,170,91.8,154.9,97.6,139.5L97.6,139.5z"/>
		<path class="st3" d="M90,162c1.7,10.2,8.1,19,17.2,23.9"/>
		<line class="st3" x1="115.6" y1="191.4" x2="131.1" y2="199.8"/>
		<path class="st3" d="M92.2,184.2c0,0,5,11.1,21.1,18.3"/>
		<path class="st3" d="M79.5,185.9c0,0,0.6,11.7,8.3,15.5"/>
		<path class="st3" d="M97.2,145.3c0,0-1.4,15,21.2,34.4"/>
		<path class="st3" d="M105.6,148.1c0,0,7.2-0.5,17.8,7.2"/>
		<path class="st3" d="M71.6,195.9c-0.5,7.4,0.5,34.3,39.5,51.5"/>
		<path class="st18" d="M320.6,180.9l-16.5,33.2c0,0,11.2,4.1,2.5,17c0,0,20.7,8.6,34.3-13.7S320.6,180.9,320.6,180.9z"/>
		<path class="st1" d="M282.8,282.3c-8.4,0-17.2-3.4-26.3-10.2l30.9-51.3l18.4,11.6h0.1c3.2,1.2,6.6,1.8,10,1.8l0,0
			c5.8,0,11.5-1.8,16.2-5.1l-22.6,38.7C309.6,267.9,299.9,282.3,282.8,282.3z"/>
		<path class="st20" d="M288,222.9l17,10.7l0.2,0.1l0.2,0.1c3.4,1.3,7,1.9,10.6,1.9c4.2,0,8.3-0.8,12.1-2.5l-19.7,33.8
			c-0.6,0.9-9.8,13.8-25.6,13.8c-7.7,0-15.9-3-24.3-9.1L288,222.9 M340.9,217.3c-7.7,12.6-17.6,15.4-24.8,15.4
			c-3.2,0-6.4-0.5-9.5-1.6L287,218.7l-32.4,53.8c10.9,8.4,20.3,11.3,28.3,11.3c18.1,0,28.2-15.2,28.2-15.2L340.9,217.3L340.9,217.3z
			"/>
		<path class="st3" d="M304.1,214.1c0,0,12.3,4.3,2.5,17"/>
		<path class="st3" d="M286.6,217.6c0,0,16.8,15.4,26.1,15.3s20.2-2.3,26.7-13.4"/>
		<path class="st3" d="M288.6,237.5c0,0,11.5,10.2,24.4,7"/>
		<path class="st3" d="M300.8,252.8c0,0,6,4.5,14.5,0.2"/>
		<path class="st3" d="M272.9,259.1c0,0,14,13.9,36,4.7"/>
		<path class="st3" d="M280.5,245.6c0,0,5.7,4.1,9.3,5.4"/>
		<path class="st3" d="M323.5,190.5c0,0,12.8,4.2,14.3,21"/>
		<path class="st3" d="M329.9,211.4c0,0,5.9,9.1-4,18.2"/>
		<path class="st3" d="M255.7,275c0,0,32,27.4,55.2-4.6"/>
		<line class="st21" x1="24.6" y1="170.6" x2="32.1" y2="170.6"/>
		<line class="st21" x1="440.4" y1="80.8" x2="447.8" y2="80.8"/>
		<line class="st22" x1="240.2" y1="29.6" x2="247.7" y2="29.6"/>
		<line class="st22" x1="454.6" y1="119.5" x2="462" y2="120.9"/>
		<line class="st23" x1="161.5" y1="305.8" x2="168.9" y2="305.8"/>
		<circle class="st18" cx="470.7" cy="212.7" r="2.5"/>
		<circle class="st18" cx="6.3" cy="94.1" r="2.5"/>
		<circle class="st4" cx="499.5" cy="372" r="2.6"/>
		<circle class="st4" cx="648.9" cy="283.4" r="2.6"/>
		<path class="st3" d="M507.8,298.8c-43.4,36.6-59,76.8-48,81.2c15.7,6.2,39-7.8,39-7.8"/>
	</g>
</g>
</svg>
