<svg xmlns="http://www.w3.org/2000/svg" width="95.14" height="95.14" viewBox="0 0 95.14 95.14"><path d="M47.37,47.45a17.53,17.53,0,0,0,2.05,0A1.64,1.64,0,0,0,51,45.78a1.66,1.66,0,0,0-1.56-1.64c-.32,0-.63,0-1,0s-.7,0-1,0a1.66,1.66,0,0,0,0,3.31Z" fill="none"/><path d="M29.9,38.58h8.55a1.67,1.67,0,1,0,0-3.33H29.92a1.67,1.67,0,1,0,0,3.33Z" fill="none"/><path d="M38.46,53H29.91a1.67,1.67,0,1,0,0,3.32h8.55a1.67,1.67,0,1,0,0-3.32Z" fill="none"/><path d="M47.4,38.57c.34,0,.67,0,1,0s.67,0,1,0A1.67,1.67,0,0,0,51,36.91a1.64,1.64,0,0,0-1.55-1.65,16.52,16.52,0,0,0-2,0,1.63,1.63,0,0,0-1.55,1.65A1.66,1.66,0,0,0,47.4,38.57Z" fill="none"/><path d="M38.44,44.13H30a1.67,1.67,0,1,0,0,3.33h8.49a1.68,1.68,0,1,0,0-3.33Z" fill="none"/><path d="M62.34,59.07c-.55.62-1.07,1.27-1.6,1.91l-1.21,1.43c-.23-.46-.42-.85-.63-1.24a1.66,1.66,0,1,0-3,1.5c.56,1.16,1.14,2.32,1.74,3.47a1.63,1.63,0,0,0,2.79.35c1.51-1.75,3-3.53,4.44-5.32a1.66,1.66,0,1,0-2.56-2.1Z" fill="none"/><path d="M73.93,60.31A13.26,13.26,0,1,0,57.14,75.45c.83.23,1.69.37,2.54.55H62c.6-.11,1.2-.2,1.79-.33A13.23,13.23,0,0,0,73.93,60.31Zm-9,.86C63.44,63,62,64.74,60.46,66.49a1.63,1.63,0,0,1-2.79-.35c-.6-1.15-1.18-2.31-1.74-3.47a1.66,1.66,0,1,1,3-1.5c.21.39.4.78.63,1.24L60.74,61c.53-.64,1-1.29,1.6-1.91a1.66,1.66,0,1,1,2.56,2.1Z"/><path d="M46.59,54.49c3.49-6,9-8.53,15.87-8.23a2,2,0,0,0,0-.36c0-3.83,0-7.66,0-11.49A8.22,8.22,0,0,0,60,28.53q-3.27-3.36-6.52-6.74a8.45,8.45,0,0,0-6.31-2.65H26.27a5.87,5.87,0,0,0-.94,0A5,5,0,0,0,21,24.49V67a6.38,6.38,0,0,0,.12,1.38,5,5,0,0,0,5.08,3.94H47.26C43.61,66.46,43.1,60.46,46.59,54.49Zm.82-19.23a16.52,16.52,0,0,1,2,0A1.64,1.64,0,0,1,51,36.91a1.67,1.67,0,0,1-1.55,1.66c-.33,0-.66,0-1,0s-.66,0-1,0a1.66,1.66,0,0,1-1.54-1.66A1.63,1.63,0,0,1,47.41,35.26Zm0,8.88c.35,0,.7,0,1,0s.63,0,1,0A1.66,1.66,0,0,1,51,45.78a1.64,1.64,0,0,1-1.53,1.67,17.53,17.53,0,0,1-2.05,0,1.66,1.66,0,0,1,0-3.31ZM29.92,35.25h8.55a1.67,1.67,0,1,1,0,3.33H29.9a1.67,1.67,0,1,1,0-3.33Zm8.54,21.09H29.91a1.67,1.67,0,1,1,0-3.32h8.55a1.67,1.67,0,1,1,0,3.32Zm0-8.88H29.93a1.67,1.67,0,1,1,0-3.33h8.49a1.68,1.68,0,1,1,0,3.33Z"/></svg>