<svg xmlns="http://www.w3.org/2000/svg" width="95.14" height="95.14" viewBox="0 0 95.14 95.14"><path d="M66.57,19.89v-.74H23.05V76H66.57V19.89Zm-31.83,6H54.88v3.25H34.74Zm-5,6.7H59.87v3.24H29.73Zm30.16,6.7v3.24H38.08V39.27Zm-25.21,0v3.27H29.76V39.26Zm-4.95,6.68h4.95v3.25H29.73Zm0,6.68h4.94v3.26H29.74Zm4.95,10H29.75V59.33h4.94Zm25.17,0H38.08V59.33H59.86Zm0-6.72H38.08V52.63H59.89Zm0-6.68H38.08V46H59.89Z"/><path d="M71,42.5c0,.14,0,.24,0,.33q0,10.88,0,21.75a1.23,1.23,0,0,0,.28.68c1.16,1.43,2.35,2.84,3.54,4.26.19.24.39.47.62.74,1.4-1.69,2.77-3.31,4.11-5a1.5,1.5,0,0,0,.31-.89q0-10.65,0-21.3V42.5Z"/><path d="M79.87,25.84H71.05V39.1h8.82Z"/></svg>