<svg xmlns="http://www.w3.org/2000/svg" width="95.14" height="95.14" viewBox="0 0 95.14 95.14"><path d="M63.79,75.07,41.09,55.33c-.11-.09-.23-.15-.39-.27,0,1.46,0,2.82,0,4.19a1.6,1.6,0,0,0,.64,1.41c3.47,3,6.91,6,10.37,9a2.75,2.75,0,0,0,.41.24l-.13.13H25.06V46.42l3.87,3.37c0-1.7,0-3.25,0-4.8a.61.61,0,0,0-.21-.41Q24.36,40.77,20,37c-.31-.27-.58-.31-.86,0v3.66h1.91v2H19.14v2H23v1.88H19.14v2h1.92v1.89H19.14v2H23v2H19.14v1.89l1.94.08v1.91H19.14v2H23v1.89H19.14v2h1.93v2H19.14V68.1H23v2H19.14v2h1.92V74H19.14v2H23V74.07h2V76h2V72.12h1.89V76h2V74.06h2V76h1.88V72.11h2V76h2V74.05h1.89V76h2V72.11h2V76h1.89V74.07h2V76h1.88l.06-3.09v-.79h1.94V76h2V74.06h1.89V76H64C64.48,75.56,64.08,75.32,63.79,75.07Z"/><path d="M76,53.07V52.5H66.23c0,.17,0,.3,0,.43,0,7.28,0,14.56,0,21.85a1.25,1.25,0,0,0,.7,1.21h8.44A1.39,1.39,0,0,0,76,74.65C76,67.46,76,60.26,76,53.07Z"/><path d="M48.55,28.48q0,15.15,0,30.31a1.1,1.1,0,0,0,.35.73c1.59,1.42,3.2,2.81,4.81,4.2l.68.59V28H48.58C48.57,28.18,48.55,28.33,48.55,28.48Z"/><path d="M76,20.69l-.13-.1c-.49.52-1,1-1.47,1.56a2.52,2.52,0,0,1-2.21.91c-.76,0-1.52,0-2.27,0a2.4,2.4,0,0,1-2-.84c-.5-.55-1-1.06-1.64-1.65V36.75H76Z"/><path d="M35.83,68.09h2.88V36.81H35.83Z"/><path d="M33.79,68.11V36.8H30.94V68.14h2.4Z"/><path d="M55.2,26a3.32,3.32,0,0,0,3-1.26c.55-.69,1.25-1.26,1.86-1.9a.64.64,0,0,0,.18-.52c-.06-.13-.31-.21-.48-.28a1.2,1.2,0,0,0-.33,0H42.69V26h.7C47.33,26,51.27,26,55.2,26Z"/><path d="M36.41,25H33.23q-1.14,4.86-2.29,9.74h7.77C37.94,31.51,37.18,28.28,36.41,25Z"/><path d="M73.77,41.22a25.22,25.22,0,0,1,1.92-2.44H66.5c.85,1.06,1.67,2,2.39,3a2.16,2.16,0,0,0,1.82.91A2.91,2.91,0,0,0,73.77,41.22Z"/><path d="M76,48.58H66.23v1.88H76Z"/><path d="M69.49,20.94a5.73,5.73,0,0,0,3.18,0c.72-.22,1.24-1.13,1.9-1.79h-7C68.26,19.86,68.78,20.73,69.49,20.94Z"/><path d="M35.09,19.44c0-.11-.19-.19-.28-.29-.09.11-.23.2-.26.32L33.7,23h2.23C35.65,21.8,35.38,20.62,35.09,19.44Z"/><path d="M70.14,46.53h1.91V44.66H70.14Z"/></svg>