<svg xmlns="http://www.w3.org/2000/svg" width="95.14" height="95.14" viewBox="0 0 95.14 95.14"><path d="M38.21,41.84l2,1.21c.44-.69.82-1.3,1.22-1.95l-2-1.3Z" fill="none"/><path d="M40.87,37.81l1.91,1.38,1.4-1.84-1.85-1.46Z" fill="none"/><path d="M69.88,36A11.84,11.84,0,1,0,58,47.8,11.87,11.87,0,0,0,69.88,36ZM48.57,36a9.47,9.47,0,1,1,9.48,9.47A9.48,9.48,0,0,1,48.57,36Z" fill="none"/><path d="M45.64,57.46l1.15,2.06,2.37-1.34c-.41-.71-.76-1.34-1.16-2Z" fill="none"/><path d="M35.92,46.09l2.11,1,1.06-2L37,44Z" fill="none"/><path d="M18.62,46.06l-2.28.6c.22.8.41,1.52.62,2.29l2.27-.62C19,47.54,18.83,46.83,18.62,46.06Z" fill="none"/><path d="M28.38,45.91c-.22-.82-.42-1.53-.62-2.28l-2.28.61.63,2.28Z" fill="none"/><path d="M23.8,47.12c-.21-.78-.39-1.47-.6-2.28l-2.28.62c.21.78.4,1.5.61,2.27Z" fill="none"/><path d="M65.12,36a7.09,7.09,0,0,0-14.17,0,7.09,7.09,0,1,0,14.17,0Zm-7.07,4.72A4.72,4.72,0,1,1,62.76,36,4.68,4.68,0,0,1,58.05,40.69Z" fill="none"/><path d="M48.09,74.12l1.54,1.74a10.55,10.55,0,0,0,3.54-6.46L51,68.77A9.24,9.24,0,0,1,48.09,74.12Z" fill="none"/><path d="M51.66,66.4l2.26.65c.23-.81.44-1.55.68-2.36l-2.28-.64Z" fill="none"/><path d="M57.65,49.39l-7.26,5.48,1.26,2,7.58-5.73Z" fill="none"/><path d="M12.26,81.2v.13l1.59,1.49,2.24-2.25L14.57,79C13.81,79.72,13,80.46,12.26,81.2Z"/><path d="M65.69,48A57.05,57.05,0,0,0,76.33,33c1-2,1.76-4,2.65-6.06A16.88,16.88,0,0,1,68.11,15.64a2.49,2.49,0,0,0-.38.08A56.26,56.26,0,0,0,37.64,38.33C34,43.69,31.72,49.73,28.9,55.5a.5.5,0,0,0,0,.48c.64.68,1.31,1.33,2,2l10.53-9.36,5.13,5.14-9.3,10.47,2.16,2.17c4.37-2.49,8.81-4.95,13.18-7.53C57.56,56,61.7,52.05,65.69,48ZM38,47.12l-2.11-1L37,44l2.08,1.12Zm2.2-4.07-2-1.21,1.28-2,2,1.3C41.05,41.75,40.67,42.36,40.23,43.05Zm2.55-3.86-1.91-1.38,1.46-1.92,1.85,1.46Zm4,20.33-1.15-2.06L48,56.13c.4.71.75,1.34,1.16,2Zm-.58-23.61A11.84,11.84,0,1,1,58,47.8,11.86,11.86,0,0,1,46.21,35.91Zm4.18,19,7.26-5.48,1.58,1.76-7.58,5.73Z"/><path d="M82.86,51.52a.72.72,0,0,0-.44-.52,14.65,14.65,0,0,0-1.73-.45.86.86,0,0,1-.69-.63c-.51-1.35-1-2.69-1.65-4a.93.93,0,0,1,0-1c.4-.61.76-1.25,1.15-1.9-1.09-1.09-2.15-2.14-3.2-3.2-.59-.58-.78-.57-1.26.13-.74,1.08-1.46,2.16-2.22,3.28a13.06,13.06,0,0,1,3.83,16.45,12.67,12.67,0,0,1-5.92,5.76,13,13,0,0,1-11.45-.06c-.22.78-.42,1.48-.64,2.28.89.32,1.74.67,2.61.92a.83.83,0,0,1,.69.72c.1.56.28,1.11.4,1.67.08.34.22.5.6.5,1.45,0,2.89,0,4.34,0a.76.76,0,0,0,.53-.44c.2-.58.29-1.2.49-1.78a1.1,1.1,0,0,1,.54-.58c1.39-.61,2.78-1.18,4.18-1.74a1,1,0,0,1,.73,0c.69.37,1.34.79,2,1.17l3.73-3.76c-.34-.57-.76-1.2-1.1-1.88a1.13,1.13,0,0,1,0-.85c.53-1.37,1.12-2.7,1.65-4.07a.85.85,0,0,1,.69-.63c.73-.15,1.45-.37,2.19-.56C82.88,54.69,82.9,53.1,82.86,51.52Z"/><path d="M56.94,58.83c-3.49,2.13-7,4.22-10.5,6.31a1,1,0,0,0-.57.84c-.38,3.15-.79,6.29-1.18,9.43-.22,1.77-.43,3.55-.66,5.4a6,6,0,0,0,.93-.1,12.73,12.73,0,0,0,10.08-9c.86-2.71,1.58-5.46,2.36-8.2.59-2,1.17-4.09,1.81-6.31C58.34,57.8,57.68,58.38,56.94,58.83Zm-7.31,17-1.54-1.74A9.24,9.24,0,0,0,51,68.77l2.22.63A10.55,10.55,0,0,1,49.63,75.86Zm4.29-8.81-2.26-.65.66-2.35,2.28.64C54.36,65.5,54.15,66.24,53.92,67.05Z"/><path d="M24.81,32.94c.38.09.76.21,1.14.28a.81.81,0,0,1,.67.66c.27.89.6,1.76.93,2.67l2.26-.65a13.13,13.13,0,0,1,3.73-16.15,13,13,0,0,1,17.52,1.51l4-2.56c-1-1-2-2-3-3-.6.36-1.23.77-1.9,1.12a1.08,1.08,0,0,1-.79,0c-1.39-.55-2.76-1.12-4.12-1.72a1.19,1.19,0,0,1-.58-.61c-.21-.58-.29-1.21-.49-1.79a.68.68,0,0,0-.5-.4c-1.47,0-2.94,0-4.41,0a.76.76,0,0,0-.53.43,14.61,14.61,0,0,0-.44,1.73.85.85,0,0,1-.65.68c-1.37.52-2.7,1.12-4.06,1.66a1.1,1.1,0,0,1-.8,0c-.68-.35-1.33-.78-2-1.19-1.16,1.17-2.3,2.3-3.42,3.46a.69.69,0,0,0,0,.63,17.16,17.16,0,0,0,.94,1.6.75.75,0,0,1,0,.86c-.59,1.34-1.15,2.69-1.67,4.06a.85.85,0,0,1-.7.63c-.73.16-1.45.37-2.19.56v4.13C23.73,32.66,23.73,32.66,24.81,32.94Z"/><path d="M28.59,49.43a1,1,0,0,0,.85-.65c1.12-2.36,2.21-4.74,3.42-7.06.89-1.7,1.94-3.32,3-5-.18,0-.33.05-.48.1-3.9,1.11-7.81,2.21-11.71,3.35a12.71,12.71,0,0,0-6.73,4.66,12.56,12.56,0,0,0-2.51,6.39c1-.12,1.89-.22,2.79-.34C21,50.38,24.78,49.89,28.59,49.43Zm-.83-5.8c.2.75.4,1.46.62,2.28l-2.27.61-.63-2.28ZM23.2,44.84c.21.81.39,1.5.6,2.28l-2.27.61c-.21-.77-.4-1.49-.61-2.27Zm-6.86,1.82,2.28-.6c.21.77.4,1.48.61,2.27L17,49C16.75,48.18,16.56,47.46,16.34,46.66Z"/><path d="M79.65,24.51c.07-.23.15-.46.22-.7q1.44-5,2.87-10c.34-1.2-.15-1.69-1.39-1.41L74.24,14l-3.78.9A13.75,13.75,0,0,0,79.65,24.51Z"/><path d="M60,63A10.56,10.56,0,0,0,71.34,45.16l-1.47,1.77a8.27,8.27,0,0,1,3.34,5,8.27,8.27,0,0,1-5,9.46,8.24,8.24,0,0,1-7.55-.69C60.43,61.52,60.22,62.24,60,63Z"/><path d="M68.31,58.68A5.61,5.61,0,0,0,71,52.82a5.54,5.54,0,0,0-2.64-4.06C67.07,50,66,51.24,64.65,52.28a8.16,8.16,0,0,0-3.1,5.29l0,.06c-.24.47-.05.74.36,1A5.63,5.63,0,0,0,68.31,58.68Z"/><path d="M48.22,23.41c.29-.24.6-.47,1-.75l-.59-.52A10.62,10.62,0,0,0,31.72,34.22c.44,1,.44,1,1.48.73l1.3-.4A8.32,8.32,0,0,1,47.33,24.13C47.62,23.89,47.91,23.65,48.22,23.41Z"/><path d="M36,27.81a5.58,5.58,0,0,0,.69,5.68c.1.14.36.32.47.27a3.74,3.74,0,0,0,1.34-.71c1.89-2,3.73-4.06,5.59-6.08.4-.43.87-.81,1.34-1.25A5.88,5.88,0,0,0,36,27.81Z"/><path d="M41.39,51.83c-2.91,2.6-5.84,5.2-8.71,7.75l2.94,2.94q3.84-4.31,7.75-8.72Z"/><path d="M26.42,62.86l5.93,5.92,3.49-2.3-7.11-7.12Z"/><path d="M26.56,67.24,16.07,77.73l1.37,1.52L28,68.67Z"/><path d="M24.42,65.17,23,63.7l-4.61,4.64,1.42,1.48Z"/><path d="M25.38,75.42l1.56,1.48c1.52-1.53,3.08-3.08,4.62-4.62l-1.49-1.55Z"/><path d="M14.8,71.77l1.45,1.55,2.32-2.19L17,69.54Z"/><path d="M21.89,78.89l1.43,1.55,2.21-2.21c-.47-.5-1-1-1.46-1.52Z"/><path d="M67.5,35.94a9.47,9.47,0,1,0-9.45,9.5A9.45,9.45,0,0,0,67.5,35.94ZM51,35.94A7.09,7.09,0,1,1,58,43.08,7.08,7.08,0,0,1,51,35.94Z"/><path d="M58,31.25A4.72,4.72,0,1,0,62.76,36,4.68,4.68,0,0,0,58,31.25Z"/></svg>